<?xml version="1.0" encoding="UTF-8"?>
<svg version="1.1" xmlns="http://www.w3.org/2000/svg" width="160" height="160">
<path d="M0 0 C52.8 0 105.6 0 160 0 C160 52.8 160 105.6 160 160 C107.2 160 54.4 160 0 160 C0 107.2 0 54.4 0 0 Z " fill="#030E1E" transform="translate(0,0)"/>
<path d="M0 0 C2.89104992 1.29598789 5.03018393 2.49296136 7 5 C8.1875 8.1875 8.1875 8.1875 9 11 C9 8.69 9 6.38 9 4 C10.875 4.9375 10.875 4.9375 13 7 C13.95351561 9.95485056 14.51196718 12.9369519 15 16 C14.01 16 13.02 16 12 16 C12.99 16.33 13.98 16.66 15 17 C15.66 16.67 16.32 16.34 17 16 C18.99960012 15.960008 21.00047242 15.95653201 23 16 C22.505 16.639375 22.01 17.27875 21.5 17.9375 C19.90197138 19.70974339 19.90197138 19.70974339 20 21 C21.32 20.01 22.64 19.02 24 18 C24 20.31 24 22.62 24 25 C24.66 24.67 25.32 24.34 26 24 C27.7404417 23.91550372 29.48409722 23.89276976 31.2265625 23.90234375 C32.15549316 23.90484131 33.08442383 23.90733887 34.04150391 23.90991211 C35.22405762 23.91901611 36.40661133 23.92812012 37.625 23.9375 C43.255625 23.9684375 43.255625 23.9684375 49 24 C49 31.59 49 39.18 49 47 C32.83 47 16.66 47 0 47 C0 46.01 0 45.02 0 44 C-5.61 43.67 -11.22 43.34 -17 43 C-16.34 40.03 -15.68 37.06 -15 34 C-15.99 34.66 -16.98 35.32 -18 36 C-18.2502157 39.08365871 -18.2502157 39.08365871 -18 42 C-22.85753045 43.29534145 -28.0084132 43.49915868 -33 43 C-33.99 42.34 -34.98 41.68 -36 41 C-35.67 39.68 -35.34 38.36 -35 37 C-33.68 37.33 -32.36 37.66 -31 38 C-31.66 38 -32.32 38 -33 38 C-33 38.66 -33 39.32 -33 40 C-31.68 40 -30.36 40 -29 40 C-29.185625 39.38125 -29.37125 38.7625 -29.5625 38.125 C-30 36 -30 36 -29 34 C-30.32 34 -31.64 34 -33 34 C-33 34.66 -33 35.32 -33 36 C-33.66 36 -34.32 36 -35 36 C-35 35.01 -35 34.02 -35 33 C-33.948125 32.505 -32.89625 32.01 -31.8125 31.5 C-27.36358512 29.00426726 -25.32812846 25.42022546 -23 21 C-21.68 21.33 -20.36 21.66 -19 22 C-18.67 21.34 -18.34 20.68 -18 20 C-17.34 20 -16.68 20 -16 20 C-14.700625 19.87625 -14.700625 19.87625 -13.375 19.75 C-9.48483141 20.03816064 -7.17532613 21.22585024 -3.83203125 23.125 C-1.88719598 24.21548944 -1.88719598 24.21548944 1 24 C0.113125 23.443125 -0.77375 22.88625 -1.6875 22.3125 C-4.84588589 20.22184267 -7.35849482 17.71488032 -10 15 C-10.66 14.67 -11.32 14.34 -12 14 C-12 13.34 -12 12.68 -12 12 C-5.94462479 12.30276876 -2.48516542 15.27754038 2 19 C-2.54727474 13.47240369 -6.50120585 9.11400553 -13 6 C-13 5.34 -13 4.68 -13 4 C-9.70586643 3.81699258 -8.03107296 3.81855942 -5 5 C-1.29280549 8.38163352 1.86002081 12.09432916 5 16 C5 13.00463014 3.68389155 10.73610491 2.5 8 C0 2.22222222 0 2.22222222 0 0 Z " fill="#050E1C" transform="translate(79,46)"/>
<path d="M0 0 C2.89104992 1.29598789 5.03018393 2.49296136 7 5 C8.1875 8.1875 8.1875 8.1875 9 11 C9 8.69 9 6.38 9 4 C10.875 4.9375 10.875 4.9375 13 7 C13.95351561 9.95485056 14.51196718 12.9369519 15 16 C14.01 16 13.02 16 12 16 C12.99 16.33 13.98 16.66 15 17 C15.66 16.67 16.32 16.34 17 16 C18.99960012 15.960008 21.00047242 15.95653201 23 16 C18.9572432 20.82074436 14.79847952 25.39451907 10.1875 29.6875 C8.77636223 30.95218271 8.77636223 30.95218271 9 33 C9.61875 32.814375 10.2375 32.62875 10.875 32.4375 C13 32 13 32 15 33 C15 35.31 15 37.62 15 40 C15.66 40 16.32 40 17 40 C17 40.66 17 41.32 17 42 C15.02 42 13.04 42 11 42 C11.33 39.36 11.66 36.72 12 34 C11.01 34.66 10.02 35.32 9 36 C9.33 37.98 9.66 39.96 10 42 C8.02 42 6.04 42 4 42 C4 39.36 4 36.72 4 34 C3.01 34 2.02 34 1 34 C1.33 36.64 1.66 39.28 2 42 C-1.3 42 -4.6 42 -8 42 C-8.33 40.68 -8.66 39.36 -9 38 C-8.01 38 -7.02 38 -6 38 C-6 38.66 -6 39.32 -6 40 C-4.68 40 -3.36 40 -2 40 C-2.185625 39.38125 -2.37125 38.7625 -2.5625 38.125 C-3 36 -3 36 -2 34 C-2.99 34 -3.98 34 -5 34 C-5 34.66 -5 35.32 -5 36 C-5.99 36 -6.98 36 -8 36 C-8 35.01 -8 34.02 -8 33 C-7.01 32.505 -7.01 32.505 -6 32 C-6.66 31.34 -7.32 30.68 -8 30 C-6.20963541 28.20963541 -3.4875315 28.36908922 -1.0625 28 C3.10680541 27.43741399 3.10680541 27.43741399 7 26 C6.13761719 26.23589844 6.13761719 26.23589844 5.2578125 26.4765625 C-3.04882289 28.40232226 -8.78133441 26.21967926 -16 22 C-16 21.34 -16 20.68 -16 20 C-10.99578373 19.49957837 -8.06718926 20.71922977 -3.83203125 23.125 C-1.88719598 24.21548944 -1.88719598 24.21548944 1 24 C0.113125 23.443125 -0.77375 22.88625 -1.6875 22.3125 C-4.84588589 20.22184267 -7.35849482 17.71488032 -10 15 C-10.66 14.67 -11.32 14.34 -12 14 C-12 13.34 -12 12.68 -12 12 C-5.94462479 12.30276876 -2.48516542 15.27754038 2 19 C-2.54727474 13.47240369 -6.50120585 9.11400553 -13 6 C-13 5.34 -13 4.68 -13 4 C-9.70586643 3.81699258 -8.03107296 3.81855942 -5 5 C-1.29280549 8.38163352 1.86002081 12.09432916 5 16 C5 13.00463014 3.68389155 10.73610491 2.5 8 C0 2.22222222 0 2.22222222 0 0 Z " fill="#EC962E" transform="translate(79,46)"/>
<path d="M0 0 C8.58 0 17.16 0 26 0 C26 0.66 26 1.32 26 2 C18.08 2 10.16 2 2 2 C2 10.25 2 18.5 2 27 C34.34 27 66.68 27 100 27 C100 18.75 100 10.5 100 2 C92.08 2 84.16 2 76 2 C76 1.34 76 0.68 76 0 C84.58 0 93.16 0 102 0 C102 9.57 102 19.14 102 29 C68.34 29 34.68 29 0 29 C0 19.43 0 9.86 0 0 Z " fill="#BDBEBF" transform="translate(29,67)"/>
<path d="M0 0 C0.68707555 2.49064888 1 4.37886292 1 7 C1.66 6.67 2.32 6.34 3 6 C5.3329866 5.95977609 7.66706666 5.95679753 10 6 C10 6.66 10 7.32 10 8 C10.66 8.33 11.32 8.66 12 9 C11.67 9.66 11.34 10.32 11 11 C11.33 11.33 11.66 11.66 12 12 C12 12.99 12 13.98 12 15 C12.99 15.33 13.98 15.66 15 16 C14.34 16 13.68 16 13 16 C13 17.65 13 19.3 13 21 C13.66 21 14.32 21 15 21 C14.67 22.32 14.34 23.64 14 25 C5.42857143 25.28571429 5.42857143 25.28571429 2 23 C2.33 22.67 2.66 22.34 3 22 C3.04063832 20.33382885 3.042721 18.66611905 3 17 C2.34 17 1.68 17 1 17 C1 19.31 1 21.62 1 24 C-0.98 24 -2.96 24 -5 24 C-4.34 21.36 -3.68 18.72 -3 16 C-4.43640171 15.80426392 -5.87419504 15.61872184 -7.3125 15.4375 C-8.11300781 15.33308594 -8.91351563 15.22867188 -9.73828125 15.12109375 C-12.16817116 14.85244822 -12.16817116 14.85244822 -15 16 C-14.4409112 12.75728494 -13.5867822 11.06942576 -11 9 C-10.34 9 -9.68 9 -9 9 C-8.731875 8.38125 -8.46375 7.7625 -8.1875 7.125 C-7 5 -7 5 -4 3 C-3.67 3 -3.34 3 -3 3 C-1.97980427 2.0206121 -0.97850195 1.02104551 0 0 Z " fill="#0C1320" transform="translate(102,64)"/>
<path d="M0 0 C0.66 0.33 1.32 0.66 2 1 C3.28571429 7.42857143 3.28571429 7.42857143 2 10 C2.99 10.66 3.98 11.32 5 12 C6.33568021 11.67619874 7.66923011 11.34342449 9 11 C12.00617269 14.00617269 11.59585316 16.82381598 12 21 C10.35 21 8.7 21 7 21 C7.33 18.36 7.66 15.72 8 13 C7.01 13.66 6.02 14.32 5 15 C4.7497843 18.08365871 4.7497843 18.08365871 5 21 C0.14246955 22.29534145 -5.0084132 22.49915868 -10 22 C-10.99 21.34 -11.98 20.68 -13 20 C-12.67 18.68 -12.34 17.36 -12 16 C-10.68 16.33 -9.36 16.66 -8 17 C-8.66 17 -9.32 17 -10 17 C-10 17.66 -10 18.32 -10 19 C-8.68 19 -7.36 19 -6 19 C-6.185625 18.38125 -6.37125 17.7625 -6.5625 17.125 C-7 15 -7 15 -6 13 C-7.32 13 -8.64 13 -10 13 C-10 13.66 -10 14.32 -10 15 C-10.66 15 -11.32 15 -12 15 C-12 14.01 -12 13.02 -12 12 C-10.948125 11.505 -9.89625 11.01 -8.8125 10.5 C-4.36358512 8.00426726 -2.32812846 4.42022546 0 0 Z " fill="#0A111D" transform="translate(56,67)"/>
<path d="M0 0 C8.58 0 17.16 0 26 0 C26 9.24 26 18.48 26 28 C-7 28 -40 28 -74 28 C-74 27.67 -74 27.34 -74 27 C-41.66 27 -9.32 27 24 27 C24 18.75 24 10.5 24 2 C16.08 2 8.16 2 0 2 C0 1.34 0 0.68 0 0 Z " fill="#E6E8E7" transform="translate(105,67)"/>
<path d="M0 0 C4.85764299 -0.26986905 6.9820966 0.13636808 10.7578125 3.33984375 C17.89299124 10.9120776 17.89299124 10.9120776 18.28125 14.859375 C18.14203125 15.91898438 18.14203125 15.91898438 18 17 C17.01 17.33 16.02 17.66 15 18 C14.67 18.66 14.34 19.32 14 20 C9.78560893 17.35375444 6.49124947 14.58822863 3 11 C2.34 10.67 1.68 10.34 1 10 C1 9.34 1 8.68 1 8 C7.05537521 8.30276876 10.51483458 11.27754038 15 15 C10.45272526 9.47240369 6.49879415 5.11400553 0 2 C0 1.34 0 0.68 0 0 Z " fill="#DFB837" transform="translate(66,50)"/>
<path d="M0 0 C2.89104992 1.29598789 5.03018393 2.49296136 7 5 C8.1875 8.1875 8.1875 8.1875 9 11 C9 8.69 9 6.38 9 4 C10.875 4.9375 10.875 4.9375 13 7 C13.95351561 9.95485056 14.51196718 12.9369519 15 16 C14.01 16 13.02 16 12 16 C13.32 16.66 14.64 17.32 16 18 C16 18.66 16 19.32 16 20 C9.12205567 20.31263383 9.12205567 20.31263383 6 18 C5.6508355 16.67072462 5.32159695 15.33621267 5 14 C3.73437717 10.87121438 2.39583741 7.77845611 1.05859375 4.6796875 C0 2 0 2 0 0 Z " fill="#18131E" transform="translate(79,46)"/>
<path d="M0 0 C0.33 0.66 0.66 1.32 1 2 C1.66 2 2.32 2 3 2 C3.04254356 3.99954746 3.04080783 6.00041636 3 8 C2.67 8.33 2.34 8.66 2 9 C3.32 9 4.64 9 6 9 C6 7.02 6 5.04 6 3 C7.32 3 8.64 3 10 3 C10.042721 4.66611905 10.04063832 6.33382885 10 8 C9.67 8.33 9.34 8.66 9 9 C9.99 9.66 10.98 10.32 12 11 C5.4 11 -1.2 11 -8 11 C-8.33 8.69 -8.66 6.38 -9 4 C-7.68 3.34 -6.36 2.68 -5 2 C-5 4.31 -5 6.62 -5 9 C-3.35 9.33 -1.7 9.66 0 10 C0 9.34 0 8.68 0 8 C-0.66 8 -1.32 8 -2 8 C-2 5.69 -2 3.38 -2 1 C-1.34 0.67 -0.68 0.34 0 0 Z " fill="#070910" transform="translate(96,78)"/>
<path d="M0 0 C0.33 0.99 0.66 1.98 1 3 C1.99 3.33 2.98 3.66 4 4 C3.34 4 2.68 4 2 4 C2 5.65 2 7.3 2 9 C2.66 9 3.32 9 4 9 C3.67 10.32 3.34 11.64 3 13 C-5.57142857 13.28571429 -5.57142857 13.28571429 -9 11 C-8.67 10.67 -8.34 10.34 -8 10 C-7.7499227 7.54190002 -7.7499227 7.54190002 -8 5 C-8.66 4.34 -9.32 3.68 -10 3 C-5.25 2.875 -5.25 2.875 -3 4 C-2.01 2.68 -1.02 1.36 0 0 Z " fill="#1C1D23" transform="translate(113,76)"/>
<path d="M0 0 C1.41719242 0.62380692 2.8337306 1.2491003 4.25 1.875 C5.03890625 2.22304687 5.8278125 2.57109375 6.640625 2.9296875 C9 4 9 4 11.01953125 5.12109375 C15.80103864 7.24306449 22.06553317 6.27341079 27 5 C24.21413835 8.05118181 22.17455751 8.89308319 17.99609375 9.2734375 C9.68682098 9.51058469 4.01982649 8.52892032 -3 4 C-3 3.34 -3 2.68 -3 2 C-2.01 2 -1.02 2 0 2 C0 1.34 0 0.68 0 0 Z " fill="#07071A" transform="translate(60,66)"/>
<path d="M0 0 C0 2.31 0 4.62 0 7 C0.66 7 1.32 7 2 7 C2 7.66 2 8.32 2 9 C0.02 9 -1.96 9 -4 9 C-3.67 6.36 -3.34 3.72 -3 1 C-3.99 1.66 -4.98 2.32 -6 3 C-5.67 4.98 -5.34 6.96 -5 9 C-6.98 9 -8.96 9 -11 9 C-11 6.03 -11 3.06 -11 0 C-3.57142857 -1.28571429 -3.57142857 -1.28571429 0 0 Z " fill="#D6D8D9" transform="translate(94,79)"/>
<path d="M0 0 C2.75170346 2.64586871 2.38566422 5.8527954 2.625 9.5625 C0.975 9.5625 -0.675 9.5625 -2.375 9.5625 C-2.045 6.9225 -1.715 4.2825 -1.375 1.5625 C-2.365 2.2225 -3.355 2.8825 -4.375 3.5625 C-4.6252157 6.64615871 -4.6252157 6.64615871 -4.375 9.5625 C-6.025 9.5625 -7.675 9.5625 -9.375 9.5625 C-9.375 6.5925 -9.375 3.6225 -9.375 0.5625 C-6.11386535 -0.06464128 -3.28972643 -0.60600224 0 0 Z " fill="#E0E1E1" transform="translate(65.375,78.4375)"/>
<path d="M0 0 C3.77533289 1.69239061 6.26506995 3.26631885 7.9140625 7.15625 C8.26597656 8.31640625 8.26597656 8.31640625 8.625 9.5 C8.86476563 10.2734375 9.10453125 11.046875 9.3515625 11.84375 C9.56554687 12.5553125 9.77953125 13.266875 10 14 C10.33 14.99 10.66 15.98 11 17 C8.04332117 16.12098738 6.34129207 15.42005178 4.375 13 C2.44894904 8.79770701 1.21885614 4.45185042 0 0 Z " fill="#DEAE34" transform="translate(79,46)"/>
<path d="M0 0 C0.66 2.97 1.32 5.94 2 9 C-1.3 9 -4.6 9 -8 9 C-8.33 7.68 -8.66 6.36 -9 5 C-7.35 4.67 -5.7 4.34 -4 4 C-4.99 4.495 -4.99 4.495 -6 5 C-6 5.66 -6 6.32 -6 7 C-4.68 7 -3.36 7 -2 7 C-2.185625 6.38125 -2.37125 5.7625 -2.5625 5.125 C-3 3 -3 3 -2 1 C-3.32 1 -4.64 1 -6 1 C-6 1.66 -6 2.32 -6 3 C-6.66 3 -7.32 3 -8 3 C-8 2.01 -8 1.02 -8 0 C-5.13822943 -1.43088528 -3.06624227 -0.59991697 0 0 Z " fill="#D0D1D2" transform="translate(52,79)"/>
<path d="M0 0 C3.94516164 -0.39451616 6.28750868 0.01705536 9.625 2 C14.85064324 4.88732039 20.19143992 4.34851361 26 4 C22.83430104 7.16569896 19.12945414 7.10042341 14.8125 7.375 C9.14299921 7.35591077 4.79607404 4.80355059 0 2 C0 1.34 0 0.68 0 0 Z " fill="#C88832" transform="translate(63,66)"/>
<path d="M0 0 C0.309375 1.093125 0.61875 2.18625 0.9375 3.3125 C1.58337897 5.55407994 2.2623117 7.7869351 3 10 C-0.3 10 -3.6 10 -7 10 C-7.33 8.68 -7.66 7.36 -8 6 C-7.01 6 -6.02 6 -5 6 C-5 6.66 -5 7.32 -5 8 C-3.68 8 -2.36 8 -1 8 C-1.185625 7.38125 -1.37125 6.7625 -1.5625 6.125 C-2 4 -2 4 -1 2 C-1.99 2 -2.98 2 -4 2 C-4 2.66 -4 3.32 -4 4 C-4.99 4 -5.98 4 -7 4 C-7 3.01 -7 2.02 -7 1 C-4.53721199 -0.231394 -2.7204945 -0.07159196 0 0 Z " fill="#E8E6D7" transform="translate(78,78)"/>
<path d="M0 0 C0.66 0.33 1.32 0.66 2 1 C2 1.99 2 2.98 2 4 C2.99 4 3.98 4 5 4 C5 3.34 5 2.68 5 2 C5.99 2 6.98 2 8 2 C8 3.98 8 5.96 8 8 C6.68 8 5.36 8 4 8 C4 7.34 4 6.68 4 6 C2.68 6 1.36 6 0 6 C-0.33 7.32 -0.66 8.64 -1 10 C-2.54578627 6.90842747 -1.60277633 4.31526981 -1 1 C-0.67 0.67 -0.34 0.34 0 0 Z " fill="#1B1F27" transform="translate(69,78)"/>
<path d="M0 0 C0.33 0.99 0.66 1.98 1 3 C1.99 3.33 2.98 3.66 4 4 C3.34 4 2.68 4 2 4 C2 5.65 2 7.3 2 9 C2.66 9 3.32 9 4 9 C3.67 9.99 3.34 10.98 3 12 C1.68 12 0.36 12 -1 12 C-1 9.36 -1 6.72 -1 4 C-1.66 3.67 -2.32 3.34 -3 3 C-2.01 2.01 -1.02 1.02 0 0 Z " fill="#D7D9D9" transform="translate(113,76)"/>
<path d="M0 0 C3.3 0 6.6 0 10 0 C10 1.65 10 3.3 10 5 C9.34 5 8.68 5 8 5 C8 7.31 8 9.62 8 12 C7.67 12 7.34 12 7 12 C6.67 9.36 6.34 6.72 6 4 C3.69 3.34 1.38 2.68 -1 2 C-0.67 1.34 -0.34 0.68 0 0 Z " fill="#C29C4B" transform="translate(72,75)"/>
<path d="M0 0 C-1.7805219 2.61534535 -3.5556526 4.97453209 -6 7 C-9.875 6.9375 -9.875 6.9375 -13 6 C-13 5.01 -13 4.02 -13 3 C-10.03 3.495 -10.03 3.495 -7 4 C-7.33 3.01 -7.66 2.02 -8 1 C-5.29120665 -0.35439668 -2.99066732 -0.06501451 0 0 Z " fill="#D78732" transform="translate(102,62)"/>
<path d="M0 0 C2.99324263 1.0975223 3.84610901 1.67682892 5.25 4.625 C5.4975 5.40875 5.745 6.1925 6 7 C3.03 7 0.06 7 -3 7 C-3.33 6.01 -3.66 5.02 -4 4 C-2.68 4 -1.36 4 0 4 C0 2.68 0 1.36 0 0 Z " fill="#ED9C33" transform="translate(84,63)"/>
<path d="M0 0 C5.77378925 0.4811491 9.95859836 2.18467181 15 5 C15 5.33 15 5.66 15 6 C8.84777564 5.56826496 5.18082051 4.34594658 0 1 C0 0.67 0 0.34 0 0 Z " fill="#B48834" transform="translate(57,69)"/>
<path d="M0 0 C5.40839975 3.16589254 9.04174791 7.17514834 13 12 C8.29261473 12 5.31789668 9.18174109 2 6 C0.5 2.625 0.5 2.625 0 0 Z " fill="#1D1C1E" transform="translate(69,53)"/>
<path d="M0 0 C-1.1875 2.5 -1.1875 2.5 -3 5 C-5.6875 5.3125 -5.6875 5.3125 -8 5 C-8.33 3.35 -8.66 1.7 -9 0 C-5.52176885 -1.15941038 -3.54104422 -0.70820884 0 0 Z " fill="#D99937" transform="translate(90,74)"/>
<path d="M0 0 C3.53586014 3.17320782 5.58578031 5.16743695 6 10 C5.67 9.34 5.34 8.68 5 8 C4.401875 7.896875 3.80375 7.79375 3.1875 7.6875 C0.03292395 6.69606181 -1.11673632 4.62311727 -3 2 C-2.01 2 -1.02 2 0 2 C0 1.34 0 0.68 0 0 Z " fill="#E6AD33" transform="translate(78,56)"/>
<path d="M0 0 C2.97 0.495 2.97 0.495 6 1 C6 3.64 6 6.28 6 9 C4.02 9 2.04 9 0 9 C0.66 6.36 1.32 3.72 2 1 C1.34 0.67 0.68 0.34 0 0 Z " fill="#E1E2E1" transform="translate(97,79)"/>
<path d="M0 0 C4 3 4 3 4.609375 5.04296875 C4.73958333 7.02864583 4.86979167 9.01432292 5 11 C4.01 10.67 3.02 10.34 2 10 C1.34 6.7 0.68 3.4 0 0 Z " fill="#D49C34" transform="translate(88,50)"/>
<path d="M0 0 C1.65 0 3.3 0 5 0 C5.144375 1.11375 5.28875 2.2275 5.4375 3.375 C5.78372035 6.82142047 5.78372035 6.82142047 7 9 C5.02 9 3.04 9 1 9 C1.20625 7.88625 1.4125 6.7725 1.625 5.625 C1.74875 4.42875 1.8725 3.2325 2 2 C1.34 1.34 0.68 0.68 0 0 Z " fill="#EBEBEB" transform="translate(103,79)"/>
<path d="M0 0 C4.7517398 0.43197635 6.92000054 1.32769295 10 5 C9.67 5.66 9.34 6.32 9 7 C6.03 5.35 3.06 3.7 0 2 C0 1.34 0 0.68 0 0 Z " fill="#E6C63A" transform="translate(67,58)"/>
<path d="M0 0 C0.99 0.33 1.98 0.66 3 1 C3 2.65 3 4.3 3 6 C1.68 6.33 0.36 6.66 -1 7 C-1.04254356 5.00045254 -1.04080783 2.99958364 -1 1 C-0.67 0.67 -0.34 0.34 0 0 Z " fill="#1C1F24" transform="translate(103,80)"/>
<path d="M0 0 C0.66 0.33 1.32 0.66 2 1 C2 3.31 2 5.62 2 8 C1.01 8 0.02 8 -1 8 C-1.33 5.69 -1.66 3.38 -2 1 C-1.34 0.67 -0.68 0.34 0 0 Z " fill="#0D1118" transform="translate(82,79)"/>
<path d="M0 0 C1.77706209 2.66559313 2.87548273 5.0280615 4 8 C-0.67692308 6.52307692 -0.67692308 6.52307692 -2.3125 3.875 C-2.539375 3.25625 -2.76625 2.6375 -3 2 C-2.01 2 -1.02 2 0 2 C0 1.34 0 0.68 0 0 Z " fill="#D38F31" transform="translate(86,55)"/>
<path d="M0 0 C0.66 0 1.32 0 2 0 C2 1.98 2 3.96 2 6 C1.01 6.33 0.02 6.66 -1 7 C-1.625 4.625 -1.625 4.625 -2 2 C-1.34 1.34 -0.68 0.68 0 0 Z " fill="#040812" transform="translate(62,80)"/>
<path d="M0 0 C0.99 0 1.98 0 3 0 C3 1.98 3 3.96 3 6 C1.68 6 0.36 6 -1 6 C-1 5.34 -1 4.68 -1 4 C-1.66 3.67 -2.32 3.34 -3 3 C-2.01 3 -1.02 3 0 3 C0 2.01 0 1.02 0 0 Z " fill="#4A4A47" transform="translate(74,80)"/>
<path d="M0 0 C5.75 -0.125 5.75 -0.125 8 1 C8 1.99 8 2.98 8 4 C5.23723823 3.47731534 2.6739124 2.89130413 0 2 C0 1.34 0 0.68 0 0 Z " fill="#DFBA36" transform="translate(63,66)"/>
<path d="M0 0 C1.32 0 2.64 0 4 0 C4 1.98 4 3.96 4 6 C2.68 6 1.36 6 0 6 C0 4.02 0 2.04 0 0 Z " fill="#2B2C2D" transform="translate(46,80)"/>
<path d="M0 0 C2.97 0 5.94 0 9 0 C8.01 0.495 8.01 0.495 7 1 C7 1.66 7 2.32 7 3 C4.36 2.67 1.72 2.34 -1 2 C-0.67 1.34 -0.34 0.68 0 0 Z " fill="#C9A535" transform="translate(72,75)"/>
<path d="M0 0 C2.0625 0.4375 2.0625 0.4375 4 1 C-3.28571429 4.57142857 -3.28571429 4.57142857 -8 3 C-8 2.67 -8 2.34 -8 2 C-6.865625 1.855625 -5.73125 1.71125 -4.5625 1.5625 C-1.19222799 1.38828522 -1.19222799 1.38828522 0 0 Z " fill="#281F1E" transform="translate(83,71)"/>
<path d="M0 0 C0.33 0.99 0.66 1.98 1 3 C-0.98 3 -2.96 3 -5 3 C-5.33 2.01 -5.66 1.02 -6 0 C-2.25 -1.125 -2.25 -1.125 0 0 Z " fill="#F4AA2F" transform="translate(86,67)"/>
<path d="M0 0 C2.0625 1.6875 2.0625 1.6875 4 4 C3.75 6.75 3.75 6.75 3 9 C0.87491756 5.81237635 0.4979837 3.73487777 0 0 Z " fill="#0A081B" transform="translate(85,49)"/>
<path d="M0 0 C0.99 0 1.98 0 3 0 C3 0.66 3 1.32 3 2 C3.99 2 4.98 2 6 2 C6 2.66 6 3.32 6 4 C4.35 4 2.7 4 1 4 C0.67 2.68 0.34 1.36 0 0 Z " fill="#D2D3D5" transform="translate(70,84)"/>
<path d="M0 0 C1.98 0.495 1.98 0.495 4 1 C3.34 1 2.68 1 2 1 C2 1.99 2 2.98 2 4 C2.66 4.33 3.32 4.66 4 5 C2.35 4.67 0.7 4.34 -1 4 C-0.67 2.68 -0.34 1.36 0 0 Z " fill="#DFDFE0" transform="translate(44,83)"/>
</svg>
